<svg xmlns="http://www.w3.org/2000/svg" xmlns:xlink="http://www.w3.org/1999/xlink" width="218" height="218" viewBox="0 0 218 218">
  <defs>
    <clipPath id="clip-path">
      <rect id="Rectangle_1" data-name="Rectangle 1" width="218" height="218" rx="109"/>
    </clipPath>
  </defs>
  <g id="whatsapp" clip-path="url(#clip-path)">
    <g id="Group_1" data-name="Group 1">
      <path id="Path_1" data-name="Path 1" d="M214.618,218H3.382C1.514,218,0,216.183,0,213.942V4.058C0,1.817,1.514,0,3.382,0H214.618C216.486,0,218,1.817,218,4.058V213.942C218,216.183,216.486,218,214.618,218Z" fill="#25d366"/>
    </g>
    <g id="Group_2" data-name="Group 2" transform="translate(44.554 45.087)">
      <path id="Path_2" data-name="Path 2" d="M257.53,243.113c-1.6-.8-9.493-4.684-10.964-5.22s-2.54-.8-3.61.8-4.144,5.22-5.08,6.291-1.872,1.2-3.476.4a43.81,43.81,0,0,1-12.9-7.964,48.353,48.353,0,0,1-8.925-11.115c-.936-1.606-.1-2.475.7-3.274.722-.719,1.6-1.874,2.407-2.811a10.95,10.95,0,0,0,1.6-2.676,2.953,2.953,0,0,0-.134-2.811c-.4-.8-3.61-8.7-4.946-11.914-1.3-3.128-2.625-2.7-3.61-2.754-.935-.047-2.006-.056-3.075-.056a5.9,5.9,0,0,0-4.279,2.008,18,18,0,0,0-5.615,13.385c0,7.9,5.749,15.527,6.551,16.6s11.314,17.277,27.409,24.227a92.056,92.056,0,0,0,9.147,3.38,21.989,21.989,0,0,0,10.106.636c3.083-.46,9.493-3.881,10.83-7.629s1.337-6.961.935-7.63S259.134,243.916,257.53,243.113Zm-29.275,39.972h-.022a53.291,53.291,0,0,1-27.165-7.439l-1.949-1.157-20.2,5.3,5.392-19.695-1.269-2.019a53.371,53.371,0,1,1,45.212,25.011Zm45.423-98.8a64.228,64.228,0,0,0-101.066,77.479l-9.11,33.274,34.04-8.929a64.153,64.153,0,0,0,30.686,7.816h.026a64.241,64.241,0,0,0,45.423-109.64" transform="translate(-163.502 -165.458)" fill="#fff" fill-rule="evenodd"/>
    </g>
  </g>
</svg>
